<svg xmlns="http://www.w3.org/2000/svg" xmlns:xlink="http://www.w3.org/1999/xlink" viewBox="0 0 600 600">
    <path fill="black"
        d="M316.539,8.039l-11.155-7.893c37.139,0.653,72.617,8.055,105.289,21.036    c-14.706,12.737-28.012,27.925-39.643,45.437c-4.791-0.929-9.623-1.678-14.587-2.255C341.358,25.929,317.597,8.789,316.539,8.039z     M466.945,50.746c-0.605,3.459-1.372,7.117-2.257,10.899c-3.969,16.32-11.21,35.138-24.201,53.676    c10.217,51.588,15.323,110.454,13.995,162.484c-0.282,11.055-0.844,21.473-1.651,30.957c6.356,24.37,6.831,50.666,0.161,76.842    h0.044c-4.66,24.122-14.48,45.19-28.065,63.123c-3.098,4.144-6.442,8.082-9.938,11.902c-20.589,23.123-46.634,37.561-67.461,46.203    c-20.868,8.643-36.598,11.497-36.598,11.497c-9.323,2.093-18.733,3.502-28.098,4.343c-29.479,2.978-87.735-8.563-116.89-29.188    c0,0,57.056,20.021,118.735,17.728c3.258-22.837,2.127-39.885-1.975-52.311c0,0,0,0,0-0.037    c-9.927-28.19-33.848-32.733-50.089-30.92c38.307-17.292,57.093,15.759,60.793,30.92c2.935,12.262,3.377,27.217,3.41,32.565    c2.697,5.589,5.631,11.34,8.848,17.291c20.262-3.982,37.872-10.693,52.839-18.495c-3.098-22.88-4.996-44.31-6.032-64.417    c-1.488-26.975,13.704-111.376,11.622-151.786c-2.697-38.639-10.413-73.982-31.929-110.092    c-18.774-26.053-40.16-30.677-50.95-31.157c0.927,0.48,1.812,0.923,2.697,1.403c8.61,4.666,15.561,9.652,20.999,14.961    c5.382,5.308,9.202,10.855,11.608,16.606c1.533,3.701,2.462,7.439,2.819,11.259c0.16,1.203,0.205,2.45,0.205,3.658    c0,62.966-33.7,104.099-125.977,167.189c-7.844,5.346-16.045,10.856-24.762,16.563c-95.096,62.362-65.629,208.122,86.244,232.243    c14.631,2.212,29.631,3.34,44.909,3.34c120.752,0,224.77-71.328,272.334-174.144c0-0.043-0.045-0.043-0.045-0.043h0.045v0.043h0.041    C590.103,387.573,600,344.952,600,300C600,196.139,547.202,104.584,466.945,50.746z M308.167,180.66    c0,3.857-0.128,7.602-0.41,11.259c-2.332-0.205-4.661-0.404-6.992-0.566c-1.004-0.038-2.05-0.119-3.054-0.156    c-2.696-0.124-5.352-0.205-8.04-0.243c-6.796-0.044-13.594,0.156-20.307,0.76c0-0.037-0.042-0.037-0.042-0.037    c-89.829,7.601-169.041,70.929-192.434,163.207c-15.849,62.562-2.857,125.652,30.634,175.184C41.778,475.108,0,392.44,0,300    C0,193.085,56.02,99.275,140.248,46.16c0-0.038,0.045-0.081,0.045-0.119C186.538,16.892,241.29,0.005,299.999,0.005h0.249    l-1.618,16.202c-0.11,1.047-1.598,16.164-1.803,33.455c-0.044,3.053-0.044,6.151,0,9.247c-0.044,1.246,0,2.449,0.033,3.695    c0.086,3.982,0.279,7.926,0.603,11.664c-27.742,8.001-57.09,11.777-64.126,12.382c-0.205,0.043-0.443,0.043-0.68,0.043h-15.127    l4.143,14.512c2.537,8.93,13.553,26.216,38.888,34.821c24.364,9.328,40.086,21.11,45.471,34.097c1.078,2.574,1.726,5.19,2.008,7.845    C308.124,178.848,308.167,179.776,308.167,180.66z M224.77,183.395c-3.659-0.243-7.283-0.361-10.93-0.361    c-48.138,0-95.182,19.417-129.074,53.271L61.2,259.871c0,0-4.099-20.506-4.66-32.371c-1.533-32.365,0.324-59.545,8.48-86.726    C33.857,186.73,16.086,241.9,16.086,300c0,52.915,14.598,103.856,41.458,147.805c-5.471-31.848-4.348-64.854,3.787-96.864    C82.273,268.234,145.719,205.429,224.77,183.395z M456.725,4.829c0,0-12.062,4.425-28.745,16.93    c-15.234,11.497-34.291,29.753-51.619,57.657c-8.332-1.969-17.61-3.539-28.151-4.424c-13.79-40.328-38.232-57.657-38.232-57.657    s-1.619,16.282-1.812,34.177c-0.042,1.203-0.042,2.412-0.042,3.615c0,9.608,0.443,19.422,1.854,27.18    c-31.291,10.337-67.999,15.079-75.962,15.765c-0.398,0-0.799,0.037-1.36,0.037c14.955,12.549,40.076,15.042,40.076,15.042    c36.88,2.574,80.15,10.413,114.117,24.122c-0.045,0.043-0.074,0.043-0.119,0.081l-14.471,10.779l13.749,11.659    c27.459,23.323,41.413,61.153,41.413,112.461c0,1.607,0,3.215-0.089,4.822c-1.239,50.385-22.874,93.168-61.471,122.76l0.033,17.572    v0.08c0.172,10.774,0.853,22.676,1.738,34.179c0.885,11.497,1.975,22.595,2.967,31.76c21.483-13.147,36.233-27.741,44.359-36.87    c1.844-2.131,3.377-3.938,4.497-5.389c6.561-29.07,12.863-58.624,17.609-93.32c1.651-12.225,3.11-25.055,4.307-38.764    c0.885-9.932,1.447-20.544,1.693-31.561c0.119-5.31,0.196-10.737,0.196-16.289c0-47.406-5.106-100.963-14.958-148.526    c13.79-18.376,21.356-37.313,25.413-54.043c0.443-1.888,0.853-3.782,1.242-5.627c1.098-5.508,1.853-10.736,2.34-15.602    C459.187,18.014,456.725,4.829,456.725,4.829z">
    </path>
</svg>